<svg width="20" height="20" viewBox="0 0 20 20" fill="none" xmlns="http://www.w3.org/2000/svg">
<g id="Discord">
<path id="Vector" fill-rule="evenodd" clip-rule="evenodd" d="M6.7662 2.43452C6.71042 2.42575 6.65371 2.4244 6.59756 2.43052C5.47596 2.55268 3.76916 3.15778 2.76172 3.70418C2.69494 3.7404 2.63514 3.78823 2.58511 3.84543C2.16688 4.32362 1.78747 5.10455 1.4896 5.84255C1.18345 6.60108 0.929913 7.4005 0.785438 7.97812C0.315165 9.85832 0.0568581 12.1164 0.0235152 14.2567C0.021846 14.3639 0.0471065 14.4698 0.0969796 14.5646C0.498427 15.3281 1.36039 16.0361 2.22431 16.5537C3.09795 17.0771 4.11662 17.491 4.93866 17.5705C5.13799 17.5897 5.33483 17.5145 5.47062 17.3674C5.67646 17.1442 6.02592 16.6235 6.29012 16.2191C6.41004 16.0357 6.52228 15.8605 6.61145 15.7202C7.49383 15.8809 8.60076 15.9735 10.0002 15.9735C11.3981 15.9735 12.5041 15.881 13.3861 15.7207C13.4751 15.861 13.5873 16.0359 13.707 16.2191C13.9713 16.6235 14.3207 17.1442 14.5265 17.3674C14.6623 17.5145 14.8591 17.5897 15.0585 17.5705C15.8805 17.491 16.8991 17.0771 17.7729 16.5537C18.6367 16.0361 19.4987 15.3281 19.9002 14.5646C19.9501 14.4698 19.9753 14.3639 19.9737 14.2567C19.9403 12.1164 19.6819 9.85832 19.2117 7.97812C19.0673 7.4005 18.8137 6.60108 18.5075 5.84255C18.2097 5.10455 17.8302 4.32362 17.4121 3.84543C17.3621 3.78823 17.3022 3.7404 17.2354 3.70418C16.2279 3.15778 14.5211 2.55268 13.3995 2.43052C13.3434 2.4244 13.2867 2.42575 13.2309 2.43452C12.9559 2.47774 12.719 2.61951 12.5443 2.75147C12.3599 2.89079 12.1886 3.06231 12.0407 3.23583C11.8264 3.48732 11.6193 3.79324 11.4859 4.08307C11.03 4.04675 10.5354 4.02674 10.0002 4.02674C9.46379 4.02674 8.96809 4.04684 8.51135 4.08332C8.37789 3.79342 8.17075 3.48739 7.9564 3.23583C7.80854 3.06231 7.63723 2.89079 7.45281 2.75147C7.27813 2.61951 7.04126 2.47774 6.7662 2.43452ZM14.691 15.3843C14.7195 15.4285 14.7489 15.4735 14.7786 15.519C14.9561 15.7907 15.1318 16.0514 15.2679 16.2413C15.7969 16.1222 16.4695 15.8425 17.115 15.4557C17.8395 15.0215 18.4133 14.5225 18.6905 14.0986C18.6471 12.0902 18.3993 10.005 17.9699 8.28871C17.8402 7.77019 17.6053 7.02702 17.3206 6.32163C17.0526 5.65775 16.7673 5.09556 16.5175 4.77234C15.6503 4.32299 14.2841 3.84783 13.3941 3.7199C13.3746 3.73126 13.3486 3.7481 13.3159 3.7728C13.225 3.8414 13.1204 3.94228 13.015 4.066C12.9596 4.13096 12.9091 4.1962 12.8638 4.25939C13.2709 4.33382 13.6339 4.42287 13.9551 4.52171C14.8667 4.8022 15.5239 5.18726 15.8455 5.61607C16.0577 5.89884 16.0003 6.29999 15.7175 6.51207C15.4347 6.72415 15.0337 6.66684 14.8215 6.38407C14.7431 6.27955 14.4003 5.99794 13.5786 5.7451C12.786 5.5012 11.6183 5.30674 10.0002 5.30674C8.38211 5.30674 7.21442 5.5012 6.42174 5.7451C5.60003 5.99794 5.25724 6.27955 5.17886 6.38407C4.96678 6.66684 4.56563 6.72415 4.28286 6.51207C4.00008 6.29999 3.94278 5.89884 4.15486 5.61607C4.47647 5.18726 5.13367 4.8022 6.0453 4.52171C6.36576 4.4231 6.7278 4.33423 7.13374 4.25991C7.08834 4.19658 7.03763 4.13115 6.98212 4.066C6.8767 3.94228 6.77209 3.8414 6.68127 3.7728C6.64856 3.7481 6.62251 3.73126 6.60308 3.7199C5.71304 3.84783 4.34684 4.32299 3.47958 4.77234C3.22987 5.09556 2.94452 5.65775 2.67658 6.32163C2.39187 7.02702 2.15688 7.77019 2.02719 8.28871C1.59791 10.005 1.35 12.0902 1.30667 14.0986C1.58382 14.5225 2.15762 15.0215 2.88216 15.4557C3.52762 15.8425 4.20023 16.1222 4.72926 16.2413C4.86532 16.0514 5.04106 15.7907 5.21859 15.519C5.24854 15.4731 5.27803 15.4278 5.3068 15.3834C4.26047 15.0122 3.69834 14.5011 3.33438 13.9553C3.13831 13.6611 3.21779 13.2638 3.51188 13.0677C3.80599 12.8717 4.20334 12.9511 4.3994 13.2452C4.74788 13.7679 5.65826 14.6935 10.0002 14.6935C14.3422 14.6935 15.2525 13.7681 15.601 13.2452C15.7971 12.9511 16.1945 12.8717 16.4886 13.0677C16.7827 13.2638 16.8622 13.6611 16.6661 13.9553C16.3018 14.5017 15.739 15.0131 14.691 15.3843ZM5.44084 9.34968C5.76568 8.99986 6.20654 8.80223 6.66695 8.80004C7.12736 8.80223 7.56823 8.99986 7.89307 9.34968C8.21791 9.69952 8.40028 10.1731 8.40028 10.6667C8.40028 11.1603 8.21791 11.6339 7.89307 11.9837C7.56823 12.3335 7.12736 12.5312 6.66695 12.5334C6.20654 12.5312 5.76568 12.3335 5.44084 11.9837C5.11599 11.6339 4.93362 11.1603 4.93362 10.6667C4.93362 10.1731 5.11599 9.69952 5.44084 9.34968ZM13.332 8.80004C12.8716 8.80223 12.4307 8.99986 12.1059 9.34968C11.781 9.69952 11.5987 10.1731 11.5987 10.6667C11.5987 11.1603 11.781 11.6339 12.1059 11.9837C12.4307 12.3335 12.8716 12.5312 13.332 12.5334C13.7925 12.5312 14.2333 12.3335 14.5581 11.9837C14.883 11.6339 15.0654 11.1603 15.0654 10.6667C15.0654 10.1731 14.883 9.69952 14.5581 9.34968C14.2333 8.99986 13.7925 8.80223 13.332 8.80004Z" fill="black" fill-opacity="0.52"/>
</g>
</svg>
