<svg width="20" height="16" viewBox="0 0 20 16" fill="none" xmlns="http://www.w3.org/2000/svg">
<path id="Env" fill-rule="evenodd" clip-rule="evenodd" d="M1.33333 0.666748C0.596953 0.666748 0 1.26371 0 2.00008V14.0001C0 14.7365 0.596953 15.3334 1.33333 15.3334H18.6667C19.4031 15.3334 20 14.7365 20 14.0001V2.00008C20 1.26371 19.4031 0.666748 18.6667 0.666748H1.33333ZM1.33333 2.00008H18.6667V3.23334C18.5565 3.23323 18.4451 3.26343 18.3452 3.32681L10 8.62279L1.65483 3.32681C1.55495 3.26343 1.44347 3.23323 1.33333 3.23334V2.00008ZM1.33333 4.54404V14.0001H18.6667V4.54404L10.3215 9.84001C10.1253 9.96455 9.87475 9.96455 9.67851 9.84001L1.33333 4.54404Z" fill="black" fill-opacity="0.52"/>
</svg>
