<svg width="20" height="20" viewBox="0 0 20 20" fill="none" xmlns="http://www.w3.org/2000/svg">
<g id="Github" clip-path="url(#clip0_13_284)">
<path id="Vector" fill-rule="evenodd" clip-rule="evenodd" d="M9.99927 0.333252C4.66196 0.333252 0.333496 4.66116 0.333496 10.0002C0.333496 14.2706 3.10303 17.8941 6.9443 19.1729C7.42795 19.2613 7.60419 18.9629 7.60419 18.7065C7.60419 18.4767 7.59588 17.8691 7.59114 17.0626C4.90231 17.6466 4.33499 15.7666 4.33499 15.7666C3.89526 14.6498 3.26148 14.3525 3.26148 14.3525C2.3838 13.7531 3.32795 13.765 3.32795 13.765C4.2982 13.8333 4.80855 14.7614 4.80855 14.7614C5.6708 16.2383 7.0713 15.8117 7.622 15.5642C7.70983 14.9399 7.95966 14.5138 8.2356 14.2723C6.08916 14.0278 3.83236 13.1988 3.83236 9.49464C3.83236 8.43892 4.20919 7.57668 4.82754 6.90076C4.72784 6.65627 4.39612 5.67353 4.92248 4.34247C4.92248 4.34247 5.7337 4.08253 7.58046 5.33289C8.35132 5.11867 9.17856 5.01185 10.0005 5.00769C10.8218 5.01185 11.6484 5.11867 12.4205 5.33289C14.266 4.08253 15.076 4.34247 15.076 4.34247C15.6036 5.67353 15.2719 6.65627 15.1728 6.90076C15.7923 7.57668 16.1662 8.43892 16.1662 9.49464C16.1662 13.2083 13.9058 14.0255 11.7529 14.2646C12.0994 14.5631 12.4086 15.153 12.4086 16.055C12.4086 17.3469 12.3967 18.3895 12.3967 18.7065C12.3967 18.9651 12.5712 19.2661 13.0614 19.1717C16.8996 17.8905 19.6668 14.2699 19.6668 10.0002C19.6668 4.66116 15.3383 0.333252 9.99927 0.333252Z" fill="black" fill-opacity="0.52"/>
</g>
<defs>
<clipPath id="clip0_13_284">
<rect width="20" height="20" fill="white"/>
</clipPath>
</defs>
</svg>
