<svg width="40" height="40" viewBox="0 0 40 40" fill="none" xmlns="http://www.w3.org/2000/svg">
<g id="Frame">
<path id="Vector" fill-rule="evenodd" clip-rule="evenodd" d="M3.99984 8C3.26346 8 2.6665 8.59696 2.6665 9.33333C2.6665 10.0697 3.26346 10.6667 3.99984 10.6667H35.9998C36.7361 10.6667 37.3332 10.0697 37.3332 9.33333C37.3332 8.59696 36.7361 8 35.9998 8H3.99984ZM2.6665 20C2.6665 19.2636 3.26346 18.6667 3.99984 18.6667H35.9998C36.7361 18.6667 37.3332 19.2636 37.3332 20C37.3332 20.7364 36.7361 21.3333 35.9998 21.3333H3.99984C3.26346 21.3333 2.6665 20.7364 2.6665 20ZM2.6665 30.6667C2.6665 29.9304 3.26346 29.3333 3.99984 29.3333H35.9998C36.7361 29.3333 37.3332 29.9304 37.3332 30.6667C37.3332 31.4029 36.7361 32 35.9998 32H3.99984C3.26346 32 2.6665 31.4029 2.6665 30.6667Z" fill="black"/>
</g>
</svg>
