<svg width="20" height="20" viewBox="0 0 20 20" fill="none" xmlns="http://www.w3.org/2000/svg">
<g id="Ig">
<path id="Vector" fill-rule="evenodd" clip-rule="evenodd" d="M17.2123 17.2119C17.6488 16.7755 17.9892 16.2526 18.2119 15.6769C18.4262 15.1257 18.5727 14.4957 18.6148 13.5731C18.657 12.6488 18.667 12.3536 18.667 9.99993C18.667 7.64623 18.657 7.35096 18.6148 6.42669C18.5727 5.5042 18.4262 4.87423 18.2119 4.32296C17.9943 3.74468 17.6532 3.22081 17.2123 2.78792C16.7794 2.34696 16.2555 2.00575 15.6772 1.78809C15.1259 1.574 14.4959 1.42752 13.5734 1.38557C12.6492 1.34323 12.354 1.33325 10.0002 1.33325C7.64651 1.33325 7.35127 1.34323 6.42702 1.38541C5.50451 1.42752 4.87454 1.574 4.32327 1.78825C3.74499 2.00588 3.22114 2.34701 2.78823 2.78789C2.34726 3.22076 2.00603 3.74461 1.78834 4.32292C1.57424 4.87423 1.42776 5.5042 1.38582 6.42669C1.34347 7.35096 1.3335 7.6462 1.3335 9.99993C1.3335 12.3537 1.34347 12.6489 1.38582 13.5731C1.42794 14.4957 1.57442 15.1257 1.78867 15.6769C2.0063 16.2553 2.34743 16.779 2.78831 17.2119C3.2212 17.6529 3.74506 17.9939 4.32334 18.2115C4.87464 18.4258 5.50462 18.5723 6.42708 18.6145C7.35147 18.6566 7.6466 18.6666 10.0003 18.6666C12.354 18.6666 12.6493 18.6566 13.5735 18.6145C14.496 18.5723 15.126 18.4258 15.6772 18.2115C16.253 17.9889 16.7759 17.6485 17.2123 17.2119ZM2.66615 8.97987C2.66648 9.26024 2.6669 9.59383 2.6669 9.99995C2.6669 10.4061 2.66648 10.7397 2.66615 11.02C2.66482 12.1145 2.66448 12.398 2.693 13.0206C2.7285 13.8011 2.77114 14.3747 2.90134 14.807C3.02651 15.2226 3.1669 15.6455 3.62523 16.1561C4.08356 16.6665 4.52564 16.8977 5.08876 17.0675C5.65188 17.2373 6.35963 17.2738 6.97419 17.3018C7.67126 17.3337 7.94752 17.3335 9.40968 17.3331H10.0002C10.3909 17.3331 10.7144 17.3334 10.988 17.3338C12.1094 17.335 12.3925 17.3353 13.0212 17.3065C13.8018 17.271 14.3754 17.2283 14.8076 17.0982C15.2232 16.973 15.6462 16.8326 16.1566 16.3742C16.667 15.9159 16.8982 15.4738 17.068 14.9107C17.2379 14.3475 17.2744 13.6398 17.3024 13.0253C17.3342 12.3291 17.334 12.0536 17.3338 10.5966L17.3336 10.0004V9.40988C17.334 7.94772 17.3342 7.67145 17.3023 6.97439C17.2743 6.35983 17.2378 5.65208 17.068 5.08896C16.8982 4.52585 16.667 4.08376 16.1566 3.62543C15.6462 3.16709 15.2231 3.02671 14.8076 2.90153C14.3752 2.77133 13.8016 2.72869 13.0211 2.6932C12.3924 2.6644 12.1094 2.66471 10.9881 2.66593C10.7144 2.66624 10.3909 2.6666 10.0002 2.6666L9.40955 2.66649C7.94751 2.66611 7.67124 2.66603 6.97419 2.69783C6.35963 2.72587 5.65188 2.76236 5.08876 2.9322C4.52564 3.10204 4.08356 3.33324 3.62523 3.84367C3.1669 4.35408 3.02651 4.77707 2.90134 5.19263C2.77114 5.62491 2.7285 6.19851 2.693 6.97908C2.66448 7.60167 2.66482 7.88527 2.66615 8.97987ZM10.0001 7.00012C8.34338 7.00012 7.00032 8.34317 7.00032 9.99991C7.00032 11.6566 8.34338 12.9997 10.0001 12.9997C11.6568 12.9997 12.9999 11.6566 12.9999 9.99991C12.9999 8.34317 11.6568 7.00012 10.0001 7.00012ZM5.66699 9.99991C5.66699 7.60679 7.60699 5.66679 10.0001 5.66679C12.3932 5.66679 14.3332 7.60679 14.3332 9.99991C14.3332 12.393 12.3932 14.333 10.0001 14.333C7.60699 14.333 5.66699 12.393 5.66699 9.99991ZM14.6264 6.37365C15.1787 6.37365 15.6264 5.92595 15.6264 5.37365C15.6264 4.82137 15.1787 4.37365 14.6264 4.37365C14.0742 4.37365 13.6264 4.82137 13.6264 5.37365C13.6264 5.92595 14.0742 6.37365 14.6264 6.37365Z" fill="black" fill-opacity="0.52"/>
</g>
</svg>
