<svg width="40" height="40" viewBox="0 0 40 40" fill="none" xmlns="http://www.w3.org/2000/svg">
<g id="Frame">
<path id="Vector" fill-rule="evenodd" clip-rule="evenodd" d="M10.2761 5.72379C9.75545 5.20307 8.91123 5.20307 8.39054 5.72379C7.86982 6.24449 7.86982 7.0887 8.39054 7.60939L19.0572 18.2761C19.5779 18.7968 20.4221 18.7968 20.9428 18.2761L31.6096 7.60939C32.1301 7.0887 32.1301 6.24449 31.6096 5.72379C31.0888 5.20307 30.2445 5.20307 29.7237 5.72379L20 15.4476L10.2761 5.72379ZM10.2761 21.7238C9.75545 21.2031 8.91123 21.2031 8.39054 21.7238C7.86982 22.2445 7.86982 23.0887 8.39054 23.6094L19.0572 34.2762C19.5779 34.7967 20.4221 34.7967 20.9428 34.2762L31.6096 23.6094C32.1301 23.0887 32.1301 22.2445 31.6096 21.7238C31.0888 21.2031 30.2445 21.2031 29.7237 21.7238L20 31.4477L10.2761 21.7238Z" fill="black"/>
</g>
</svg>
